<svg width="150" height="60" viewBox="0 0 281 89" fill="none" xmlns="http://www.w3.org/2000/svg">
<path d="M97.082 11.8476L53.553 14.2276C53.351 12.8356 53.035 11.6266 52.711 10.6616L94.409 3.43762C95.352 3.27362 95.982 2.37762 95.819 1.43562C95.657 0.494615 94.763 -0.137385 93.818 0.025615L50.929 7.45561C50.425 7.18361 49.808 7.14162 49.268 7.44562C49.096 7.54262 48.962 7.67761 48.839 7.81861L45.265 8.43762C45.173 8.25762 45.104 8.12662 45.085 8.09362C44.614 7.26462 43.564 6.97561 42.732 7.44661C42.147 7.77661 41.848 8.39762 41.873 9.02562L39.202 9.48862C38.868 8.67461 38.594 8.17262 38.55 8.09362C38.077 7.26462 37.029 6.97561 36.197 7.44661C35.367 7.91561 35.075 8.97062 35.54 9.80162C35.555 9.83062 35.614 9.94162 35.69 10.0956L26.622 11.6676C25.683 11.8306 25.05 12.7266 25.212 13.6686C25.359 14.5106 26.091 15.1046 26.916 15.1046C27.014 15.1046 27.114 15.0956 27.213 15.0796L36.829 13.4136C36.947 13.9366 37.045 14.5156 37.12 15.1276L33.563 15.3216C32.609 15.3736 31.877 16.1896 31.93 17.1446C31.981 18.0666 32.745 18.7816 33.658 18.7816C33.688 18.7816 33.722 18.7806 33.753 18.7796L37.18 18.5916C37.053 20.0796 36.719 21.6856 36.054 23.3686C23.651 23.8076 0 25.5316 0 32.3016C0 32.4906 0.044 32.6706 0.081 32.8526C-0.047 35.7026 -0.781 57.9336 12.454 71.9766C14.388 74.0226 16.65 75.7636 18.65 77.2506V86.9146C18.65 87.8716 19.841 88.8976 20.797 88.8976H65.806C66.762 88.8976 66.65 87.8716 66.65 86.9146V76.6286C69.65 74.7226 73.021 72.4006 75.445 69.6596C87.279 56.2836 86.878 37.3346 86.494 32.4126C86.501 32.3346 86.422 31.6706 86.338 31.3966C86.33 31.3506 86.182 30.5996 85.837 30.1176C81.618 25.4376 63.949 23.9296 52.754 23.4456C53.422 21.4026 53.726 19.4566 53.77 17.6816L97.269 15.3036C98.226 15.2516 98.957 14.4356 98.907 13.4806C98.852 12.5266 98.017 11.8036 97.082 11.8476ZM49.259 11.2586C49.553 12.0466 49.882 13.1176 50.096 14.4166L47.068 14.5826C46.931 13.5266 46.73 12.5716 46.5 11.7376L49.259 11.2586ZM40.23 12.8226L43.079 12.3296C43.285 13.0256 43.475 13.8476 43.608 14.7706L40.584 14.9366C40.499 14.1776 40.374 13.4776 40.23 12.8226ZM40.661 18.3986L43.741 18.2306C43.643 19.7736 43.332 21.4526 42.652 23.2196C42.018 23.2236 41.021 23.2356 39.753 23.2616C40.293 21.5546 40.569 19.9226 40.661 18.3986ZM83.258 32.3186C81.963 34.1156 71.289 36.9756 52.795 37.7296C51.831 36.6636 48.873 32.7026 51.401 26.8176C70.743 27.4796 81.915 30.4366 83.255 32.2776C83.256 32.2926 83.258 32.3026 83.258 32.3186ZM48.642 37.8576C47.912 37.8736 47.163 37.8836 46.412 37.8936C45.685 37.1466 42.132 33.0186 44.919 26.6926C45.864 26.6986 46.819 26.7016 47.732 26.7176C46.178 31.3266 47.159 35.2306 48.642 37.8576ZM39.871 37.8886C39.099 37.0986 35.616 33.0196 38.365 26.7356C39.288 26.7156 40.245 26.7076 41.203 26.6986C39.631 31.3456 40.636 35.2766 42.135 37.9086C41.371 37.9056 40.613 37.8996 39.871 37.8886ZM34.621 26.8406C33.14 31.3536 34.083 35.1816 35.53 37.7856C16.027 37.1306 4.781 34.1426 3.512 32.2986C4.763 30.4836 15.669 27.5556 34.621 26.8406ZM63.65 84.8976H21.65V79.1816C27.65 81.7746 33.371 83.1156 40.361 83.1156C49.273 83.1156 58.65 81.5556 63.65 78.4866V84.8976ZM73.279 67.3846C66.069 75.5246 55.213 79.6526 41.012 79.6526C30.167 79.6526 21.482 76.2746 15.195 69.6116C5.383 59.2136 3.762 43.3296 3.547 36.3136C13.636 41.3096 41.939 41.3826 43.394 41.3826C44.856 41.3826 73.487 41.3066 83.415 36.2236C83.444 43.2866 82.236 57.2746 73.279 67.3846ZM49.147 23.3156C48.065 23.2846 47.11 23.2626 46.292 23.2476C46.872 21.4126 47.152 19.6596 47.22 18.0406L50.304 17.8726C50.234 19.5386 49.904 21.3786 49.147 23.3156Z" fill="currentColor"/>
<path d="M109.238 51.7095C107.126 51.7095 105.125 51.5048 103.233 51.0953C101.368 50.6585 99.7096 49.8941 98.2564 48.8021C96.8306 47.71 95.7064 46.1949 94.8839 44.2566C94.0613 42.3182 93.65 39.8339 93.65 36.8036C93.65 33.8824 94.0887 31.4664 94.9661 29.5553C95.8435 27.617 97.0088 26.0882 98.462 24.9689C99.9426 23.8496 101.574 23.0579 103.356 22.5938C105.166 22.1297 106.989 21.8976 108.826 21.8976C110.17 21.8976 111.335 21.9659 112.322 22.1024C113.309 22.2389 114.255 22.4163 115.16 22.6347L120.754 25.8698L117.875 32.2171L108.785 29.023C107.469 29.023 106.249 29.2823 105.125 29.8011C104.028 30.3198 103.137 31.1524 102.451 32.299C101.793 33.4183 101.464 34.9335 101.464 36.8445C101.464 39.9295 102.15 42.0998 103.521 43.3557C104.919 44.5842 106.825 45.1984 109.238 45.1984C110.471 45.1984 111.431 45.1438 112.117 45.0346C112.829 44.8981 113.378 44.7889 113.762 44.707V41.5948H108.538V35.5341H121.617L122.07 37.9911L121.165 41.39V49.9896C120.863 50.0988 120.178 50.2899 119.108 50.5629C118.066 50.8359 116.696 51.0953 114.996 51.341C113.323 51.5867 111.404 51.7095 109.238 51.7095Z" fill="currentColor"/>
<path d="M127.025 51.3L126.202 48.843L127.025 44.748V22.3071H147.383L149.44 23.5356L146.725 29.2687L143.024 28.8592H134.428V33.3637H145.491V39.7111H140.638L134.428 39.3016V44.748H146.725L151.62 48.6792L149.193 51.3H127.025Z" fill="currentColor"/>
<path d="M155.341 51.3V28.9001L154.518 24.8051L155.341 22.3481H161.962L170.27 33.4866L172.244 36.8855H172.656V22.3481H180.429V24.8051L180.018 28.9001V51.3H173.561L163.237 36.8855H162.826V39.3425L163.237 51.3H155.341Z" fill="currentColor"/>
<path d="M186.187 51.3L185.364 48.843L186.187 44.748V22.3071H206.545L208.602 23.5356L205.887 29.2687L202.186 28.8592H193.59V33.3637H204.653V39.7111H199.8L193.59 39.3016V44.748H205.887L210.782 48.6792L208.355 51.3H186.187Z" fill="currentColor"/>
<path d="M214.503 51.3V28.9001L213.68 24.7641L214.503 22.3071H227.664C229.665 22.3071 231.461 22.6211 233.052 23.249C234.669 23.8496 235.944 24.887 236.876 26.3612C237.836 27.8081 238.316 29.8147 238.316 32.3809C238.316 34.7015 237.891 36.5852 237.041 38.0321C236.191 39.4517 235.012 40.5164 233.504 41.2262L233.915 41.6767L237.987 46.7545L240.331 48.843V51.3H231.077L225.319 42.5776H221.906V44.707L222.317 48.8021L221.906 51.3H214.503ZM221.906 36.1484H225.936C227.362 36.1484 228.5 35.889 229.35 35.3703C230.2 34.8243 230.625 33.8278 230.625 32.3809C230.625 31.3708 230.419 30.6201 230.008 30.1287C229.597 29.6099 229.021 29.2687 228.281 29.1049C227.568 28.9411 226.731 28.8592 225.772 28.8592H221.494L221.906 36.1484Z" fill="currentColor"/>
<path d="M243.612 51.3V28.8592L243.201 24.7641L243.612 22.3071H251.056V51.3H243.612Z" fill="currentColor"/>
<path d="M269.916 51.7095C268.051 51.7095 266.241 51.5048 264.487 51.0953C262.732 50.6585 261.142 49.8941 259.716 48.8021C258.317 47.71 257.207 46.1949 256.384 44.2566C255.562 42.3182 255.151 39.8339 255.151 36.8036C255.151 33.9916 255.562 31.6302 256.384 29.7192C257.207 27.8081 258.304 26.2793 259.675 25.1327C261.046 23.9861 262.54 23.1671 264.158 22.6757C265.803 22.157 267.448 21.8976 269.093 21.8976C270.491 21.8976 271.849 22.0068 273.165 22.2252C274.508 22.4436 275.482 22.6893 276.085 22.9623L280.65 26.6888L276.948 32.6266L269.916 29.023C267.969 29.023 266.324 29.6645 264.98 30.9477C263.637 32.2035 262.965 34.1554 262.965 36.8036C262.965 38.6873 263.294 40.2161 263.952 41.39C264.637 42.5639 265.57 43.4239 266.749 43.9699C267.928 44.5159 269.271 44.7889 270.779 44.7889C272.37 44.7889 273.727 44.6661 274.851 44.4204C275.975 44.1474 276.962 43.8334 277.812 43.4785C278.662 43.0963 279.471 42.7277 280.239 42.3728V49.2525C279.279 49.8531 278.004 50.4128 276.414 50.9315C274.824 51.4502 272.657 51.7095 269.916 51.7095Z" fill="currentColor"/>
<path d="M95.2952 87.4881V65.1292L94.4726 60.9522L95.2952 58.4952H115.654L117.71 59.7237L114.996 65.4568L111.294 65.0473H102.287L102.698 69.5518H113.762V75.8991H108.785L102.698 75.4896V80.977L103.151 85.072L102.698 87.4881H95.2952Z" fill="currentColor"/>
<path d="M132.374 87.8976C130.619 87.8976 128.905 87.6929 127.233 87.2834C125.588 86.8465 124.093 86.0821 122.75 84.9901C121.434 83.8981 120.378 82.383 119.583 80.4446C118.815 78.5063 118.431 76.022 118.431 72.9916C118.431 69.9613 118.815 67.477 119.583 65.5387C120.378 63.6003 121.434 62.0852 122.75 60.9932C124.093 59.9011 125.588 59.1504 127.233 58.7409C128.905 58.3041 130.619 58.0857 132.374 58.0857C134.129 58.0857 135.829 58.3041 137.474 58.7409C139.146 59.1777 140.641 59.9421 141.957 61.0341C143.3 62.1261 144.356 63.6413 145.124 65.5796C145.919 67.5179 146.316 69.9886 146.316 72.9916C146.316 75.9947 145.919 78.4654 145.124 80.4037C144.356 82.342 143.3 83.8572 141.957 84.9492C140.641 86.0412 139.146 86.8056 137.474 87.2424C135.829 87.6792 134.129 87.8976 132.374 87.8976ZM132.374 80.936C134.403 80.936 135.938 80.3354 136.98 79.1342C138.022 77.933 138.543 75.8855 138.543 72.9916C138.543 70.0978 138.022 68.0503 136.98 66.8491C135.938 65.6479 134.403 65.0473 132.374 65.0473C130.372 65.0473 128.851 65.6615 127.809 66.89C126.767 68.1185 126.246 70.1524 126.246 72.9916C126.246 75.8309 126.767 77.8647 127.809 79.0933C128.851 80.3218 130.372 80.936 132.374 80.936Z" fill="currentColor"/>
<path d="M163.541 87.8976C161.786 87.8976 160.073 87.6929 158.4 87.2834C156.755 86.8465 155.261 86.0821 153.917 84.9901C152.601 83.8981 151.546 82.383 150.75 80.4446C149.983 78.5063 149.599 76.022 149.599 72.9916C149.599 69.9613 149.983 67.477 150.75 65.5387C151.546 63.6003 152.601 62.0852 153.917 60.9932C155.261 59.9011 156.755 59.1504 158.4 58.7409C160.073 58.3041 161.786 58.0857 163.541 58.0857C165.296 58.0857 166.996 58.3041 168.641 58.7409C170.314 59.1777 171.808 59.9421 173.124 61.0341C174.468 62.1261 175.523 63.6413 176.291 65.5796C177.086 67.5179 177.484 69.9886 177.484 72.9916C177.484 75.9947 177.086 78.4654 176.291 80.4037C175.523 82.342 174.468 83.8572 173.124 84.9492C171.808 86.0412 170.314 86.8056 168.641 87.2424C166.996 87.6792 165.296 87.8976 163.541 87.8976ZM163.541 80.936C165.57 80.936 167.106 80.3354 168.148 79.1342C169.19 77.933 169.711 75.8855 169.711 72.9916C169.711 70.0978 169.19 68.0503 168.148 66.8491C167.106 65.6479 165.57 65.0473 163.541 65.0473C161.54 65.0473 160.018 65.6615 158.976 66.89C157.934 68.1185 157.413 70.1524 157.413 72.9916C157.413 75.8309 157.934 77.8647 158.976 79.0933C160.018 80.3218 161.54 80.936 163.541 80.936Z" fill="currentColor"/>
<path d="M182.411 87.4881V65.0882L181.589 60.9932L182.411 58.4952H194.668C196.642 58.4952 198.534 58.6863 200.343 59.0685C202.18 59.4234 203.812 60.1059 205.238 61.116C206.691 62.1261 207.829 63.573 208.651 65.4568C209.501 67.3405 209.926 69.7839 209.926 72.7869C209.926 75.7899 209.501 78.2606 208.651 80.1989C207.801 82.11 206.65 83.5978 205.196 84.6625C203.743 85.7272 202.098 86.4643 200.261 86.8738C198.451 87.2834 196.587 87.4881 194.668 87.4881H182.411ZM189.897 80.936H194.668C197.081 80.936 198.931 80.3081 200.22 79.0523C201.509 77.7692 202.153 75.6807 202.153 72.7869C202.153 69.8931 201.495 67.8865 200.179 66.7672C198.89 65.6206 197.053 65.0473 194.668 65.0473H189.897V80.936Z" fill="currentColor"/>
<path d="M224.324 87.8976C222.816 87.8976 221.39 87.7611 220.046 87.4881C218.703 87.1878 217.537 86.8329 216.55 86.4234C215.563 86.0139 214.837 85.6317 214.371 85.2768V77.9466C215.687 78.6838 217.346 79.3799 219.347 80.0351C221.349 80.663 223.57 80.977 226.01 80.977C226.997 80.977 227.724 80.8541 228.19 80.6084C228.683 80.3354 228.93 79.8713 228.93 79.2161C228.93 78.5063 228.382 77.9193 227.285 77.4552C226.216 76.9638 224.516 76.3632 222.185 75.6534C220.375 75.0801 218.826 74.4522 217.538 73.7697C216.276 73.0599 215.303 72.1863 214.617 71.1489C213.959 70.0842 213.63 68.7328 213.63 67.0948C213.63 65.4022 214.069 63.8733 214.946 62.5083C215.824 61.1433 217.195 60.065 219.059 59.2732C220.924 58.4815 223.309 58.0857 226.216 58.0857C227.093 58.0857 228.025 58.1266 229.012 58.2085C230.027 58.2631 230.836 58.345 231.439 58.4542L236.086 61.8531L234.482 66.8491L224.735 64.1873C223.611 64.1873 222.774 64.4193 222.226 64.8835C221.705 65.3476 221.445 65.9072 221.445 66.5624C221.445 67.3541 221.897 67.982 222.802 68.4461C223.707 68.9103 225.009 69.3744 226.709 69.8385C229.396 70.5756 231.48 71.3946 232.961 72.2955C234.441 73.1964 235.483 74.2202 236.086 75.3668C236.69 76.4861 236.991 77.7555 236.991 79.1752C236.991 81.796 235.936 83.9118 233.824 85.5225C231.713 87.1059 228.546 87.8976 224.324 87.8976Z" fill="currentColor"/>
</svg>
